<mxfile host="app.diagrams.net" modified="2021-11-18T09:10:14.332Z" agent="5.0 (Macintosh; Intel Mac OS X 10_15_7) AppleWebKit/537.36 (KHTML, like Gecko) Chrome/95.0.4638.69 Safari/537.36" etag="X9I7tqpHigXePu47BefM" version="15.5.9" type="github">
  <diagram id="fl1BpGWGSX5jYJE63QO-" name="Page-1">
    <mxGraphModel dx="1186" dy="504" grid="1" gridSize="10" guides="1" tooltips="1" connect="1" arrows="1" fold="1" page="1" pageScale="1" pageWidth="850" pageHeight="1100" math="0" shadow="0">
      <root>
        <mxCell id="0" />
        <mxCell id="1" parent="0" />
        <mxCell id="3m2Ds8FF72PZ1U5PXdX1-10" style="edgeStyle=orthogonalEdgeStyle;rounded=0;orthogonalLoop=1;jettySize=auto;html=1;" parent="1" source="3m2Ds8FF72PZ1U5PXdX1-1" target="3m2Ds8FF72PZ1U5PXdX1-2" edge="1">
          <mxGeometry relative="1" as="geometry" />
        </mxCell>
        <mxCell id="3m2Ds8FF72PZ1U5PXdX1-1" value="" style="shape=image;html=1;verticalAlign=top;verticalLabelPosition=bottom;labelBackgroundColor=#ffffff;imageAspect=0;aspect=fixed;image=https://cdn3.iconfinder.com/data/icons/seo-marketing-19/32/SEO-10-128.png" parent="1" vertex="1">
          <mxGeometry x="80" y="472.5" width="50" height="50" as="geometry" />
        </mxCell>
        <mxCell id="3m2Ds8FF72PZ1U5PXdX1-11" style="edgeStyle=orthogonalEdgeStyle;rounded=0;orthogonalLoop=1;jettySize=auto;html=1;entryX=0.5;entryY=1;entryDx=0;entryDy=0;" parent="1" source="3m2Ds8FF72PZ1U5PXdX1-2" target="3m2Ds8FF72PZ1U5PXdX1-4" edge="1">
          <mxGeometry relative="1" as="geometry">
            <mxPoint x="100" y="260" as="targetPoint" />
          </mxGeometry>
        </mxCell>
        <mxCell id="3m2Ds8FF72PZ1U5PXdX1-2" value="" style="image;html=1;image=img/lib/clip_art/computers/MacBook_128x128.png" parent="1" vertex="1">
          <mxGeometry x="70" y="340" width="72" height="70" as="geometry" />
        </mxCell>
        <mxCell id="3m2Ds8FF72PZ1U5PXdX1-12" style="edgeStyle=orthogonalEdgeStyle;rounded=0;orthogonalLoop=1;jettySize=auto;html=1;" parent="1" source="3m2Ds8FF72PZ1U5PXdX1-4" target="kci2PPFaNapDngSlUc1S-1" edge="1">
          <mxGeometry relative="1" as="geometry">
            <mxPoint x="270" y="114" as="targetPoint" />
          </mxGeometry>
        </mxCell>
        <mxCell id="3m2Ds8FF72PZ1U5PXdX1-4" value="" style="shape=image;html=1;verticalAlign=top;verticalLabelPosition=bottom;labelBackgroundColor=#ffffff;imageAspect=0;aspect=fixed;image=https://cdn3.iconfinder.com/data/icons/social-media-2169/24/social_media_social_media_logo_git-128.png" parent="1" vertex="1">
          <mxGeometry x="50" y="140" width="104" height="104" as="geometry" />
        </mxCell>
        <mxCell id="kci2PPFaNapDngSlUc1S-4" style="edgeStyle=orthogonalEdgeStyle;rounded=0;orthogonalLoop=1;jettySize=auto;html=1;exitX=0.5;exitY=1;exitDx=0;exitDy=0;exitPerimeter=0;entryX=0.5;entryY=0;entryDx=0;entryDy=0;entryPerimeter=0;" edge="1" parent="1" source="3m2Ds8FF72PZ1U5PXdX1-9" target="3m2Ds8FF72PZ1U5PXdX1-17">
          <mxGeometry relative="1" as="geometry" />
        </mxCell>
        <mxCell id="3m2Ds8FF72PZ1U5PXdX1-9" value="" style="verticalLabelPosition=bottom;html=1;verticalAlign=top;align=center;strokeColor=none;fillColor=#00BEF2;shape=mxgraph.azure.azure_subscription;" parent="1" vertex="1">
          <mxGeometry x="480" y="30" width="80" height="53.5" as="geometry" />
        </mxCell>
        <mxCell id="kci2PPFaNapDngSlUc1S-8" style="edgeStyle=orthogonalEdgeStyle;rounded=0;orthogonalLoop=1;jettySize=auto;html=1;" edge="1" parent="1" source="3m2Ds8FF72PZ1U5PXdX1-17" target="kci2PPFaNapDngSlUc1S-5">
          <mxGeometry relative="1" as="geometry" />
        </mxCell>
        <mxCell id="3m2Ds8FF72PZ1U5PXdX1-17" value="" style="verticalLabelPosition=bottom;html=1;verticalAlign=top;align=center;strokeColor=none;fillColor=#00BEF2;shape=mxgraph.azure.virtual_machine;" parent="1" vertex="1">
          <mxGeometry x="482.5" y="140" width="75" height="62" as="geometry" />
        </mxCell>
        <mxCell id="kci2PPFaNapDngSlUc1S-2" style="edgeStyle=orthogonalEdgeStyle;rounded=0;orthogonalLoop=1;jettySize=auto;html=1;entryX=0.013;entryY=0.766;entryDx=0;entryDy=0;entryPerimeter=0;" edge="1" parent="1" source="kci2PPFaNapDngSlUc1S-1" target="3m2Ds8FF72PZ1U5PXdX1-9">
          <mxGeometry relative="1" as="geometry" />
        </mxCell>
        <mxCell id="kci2PPFaNapDngSlUc1S-20" style="edgeStyle=orthogonalEdgeStyle;rounded=0;orthogonalLoop=1;jettySize=auto;html=1;entryX=0.5;entryY=0.16;entryDx=0;entryDy=0;entryPerimeter=0;" edge="1" parent="1" source="kci2PPFaNapDngSlUc1S-1" target="kci2PPFaNapDngSlUc1S-3">
          <mxGeometry relative="1" as="geometry" />
        </mxCell>
        <mxCell id="kci2PPFaNapDngSlUc1S-1" value="" style="sketch=0;outlineConnect=0;fontColor=#232F3E;gradientColor=none;fillColor=#6CAE3E;strokeColor=none;dashed=0;verticalLabelPosition=bottom;verticalAlign=top;align=center;html=1;fontSize=12;fontStyle=0;aspect=fixed;pointerEvents=1;shape=mxgraph.aws4.iot_analytics_pipeline;" vertex="1" parent="1">
          <mxGeometry x="220" y="98" width="78" height="42" as="geometry" />
        </mxCell>
        <mxCell id="kci2PPFaNapDngSlUc1S-14" style="edgeStyle=orthogonalEdgeStyle;rounded=0;orthogonalLoop=1;jettySize=auto;html=1;exitX=0.825;exitY=0.5;exitDx=0;exitDy=0;exitPerimeter=0;entryX=0;entryY=0.5;entryDx=0;entryDy=0;" edge="1" parent="1" source="kci2PPFaNapDngSlUc1S-3" target="kci2PPFaNapDngSlUc1S-7">
          <mxGeometry relative="1" as="geometry" />
        </mxCell>
        <mxCell id="kci2PPFaNapDngSlUc1S-16" style="edgeStyle=orthogonalEdgeStyle;rounded=0;orthogonalLoop=1;jettySize=auto;html=1;entryX=0;entryY=0.75;entryDx=0;entryDy=0;" edge="1" parent="1" source="kci2PPFaNapDngSlUc1S-3" target="kci2PPFaNapDngSlUc1S-6">
          <mxGeometry relative="1" as="geometry" />
        </mxCell>
        <mxCell id="kci2PPFaNapDngSlUc1S-3" value="Container&#xa;Registry" style="sketch=0;html=1;fillColor=#5184F3;strokeColor=none;verticalAlign=top;labelPosition=center;verticalLabelPosition=bottom;align=center;spacingTop=-6;fontSize=11;fontStyle=1;fontColor=#999999;shape=mxgraph.gcp2.hexIcon;prIcon=container_registry" vertex="1" parent="1">
          <mxGeometry x="226" y="210" width="66" height="58.5" as="geometry" />
        </mxCell>
        <mxCell id="kci2PPFaNapDngSlUc1S-9" style="edgeStyle=orthogonalEdgeStyle;rounded=0;orthogonalLoop=1;jettySize=auto;html=1;entryX=0.5;entryY=0;entryDx=0;entryDy=0;" edge="1" parent="1" source="kci2PPFaNapDngSlUc1S-5" target="kci2PPFaNapDngSlUc1S-7">
          <mxGeometry relative="1" as="geometry" />
        </mxCell>
        <mxCell id="kci2PPFaNapDngSlUc1S-5" value="docker engine&lt;br&gt;docker-compose" style="rounded=1;whiteSpace=wrap;html=1;" vertex="1" parent="1">
          <mxGeometry x="465" y="268.5" width="110" height="41.5" as="geometry" />
        </mxCell>
        <mxCell id="kci2PPFaNapDngSlUc1S-12" style="edgeStyle=orthogonalEdgeStyle;rounded=0;orthogonalLoop=1;jettySize=auto;html=1;entryX=0.5;entryY=1.02;entryDx=0;entryDy=0;entryPerimeter=0;" edge="1" parent="1" source="kci2PPFaNapDngSlUc1S-6" target="kci2PPFaNapDngSlUc1S-11">
          <mxGeometry relative="1" as="geometry" />
        </mxCell>
        <mxCell id="kci2PPFaNapDngSlUc1S-6" value="" style="shape=image;html=1;verticalAlign=top;verticalLabelPosition=bottom;labelBackgroundColor=#ffffff;imageAspect=0;aspect=fixed;image=https://cdn4.iconfinder.com/data/icons/free-retina-icon-set/60/Cat_head.png" vertex="1" parent="1">
          <mxGeometry x="491.25" y="500" width="57.5" height="57.5" as="geometry" />
        </mxCell>
        <mxCell id="kci2PPFaNapDngSlUc1S-13" style="edgeStyle=orthogonalEdgeStyle;rounded=0;orthogonalLoop=1;jettySize=auto;html=1;" edge="1" parent="1" source="kci2PPFaNapDngSlUc1S-7" target="kci2PPFaNapDngSlUc1S-6">
          <mxGeometry relative="1" as="geometry" />
        </mxCell>
        <mxCell id="kci2PPFaNapDngSlUc1S-28" style="edgeStyle=orthogonalEdgeStyle;rounded=0;orthogonalLoop=1;jettySize=auto;html=1;exitX=1;exitY=0.5;exitDx=0;exitDy=0;entryX=0.48;entryY=1.04;entryDx=0;entryDy=0;entryPerimeter=0;" edge="1" parent="1" source="kci2PPFaNapDngSlUc1S-7" target="kci2PPFaNapDngSlUc1S-11">
          <mxGeometry relative="1" as="geometry" />
        </mxCell>
        <mxCell id="kci2PPFaNapDngSlUc1S-7" value="" style="shape=image;html=1;verticalAlign=top;verticalLabelPosition=bottom;labelBackgroundColor=#ffffff;imageAspect=0;aspect=fixed;image=https://cdn0.iconfinder.com/data/icons/font-awesome-brands-vol-1/512/jenkins-128.png" vertex="1" parent="1">
          <mxGeometry x="480" y="360" width="78" height="78" as="geometry" />
        </mxCell>
        <mxCell id="kci2PPFaNapDngSlUc1S-11" value="" style="sketch=0;aspect=fixed;html=1;points=[];align=center;image;fontSize=12;image=img/lib/mscae/DNS.svg;" vertex="1" parent="1">
          <mxGeometry x="695" y="230" width="50" height="50" as="geometry" />
        </mxCell>
        <mxCell id="kci2PPFaNapDngSlUc1S-21" value="Gitlab" style="text;html=1;resizable=0;autosize=1;align=center;verticalAlign=middle;points=[];fillColor=none;strokeColor=none;rounded=0;" vertex="1" parent="1">
          <mxGeometry x="60" y="98" width="50" height="20" as="geometry" />
        </mxCell>
        <mxCell id="kci2PPFaNapDngSlUc1S-22" value="Pipeline" style="text;html=1;resizable=0;autosize=1;align=center;verticalAlign=middle;points=[];fillColor=none;strokeColor=none;rounded=0;" vertex="1" parent="1">
          <mxGeometry x="238" y="46.75" width="60" height="20" as="geometry" />
        </mxCell>
        <mxCell id="kci2PPFaNapDngSlUc1S-23" value="AZ Subscription&amp;nbsp;" style="text;html=1;resizable=0;autosize=1;align=center;verticalAlign=middle;points=[];fillColor=none;strokeColor=none;rounded=0;" vertex="1" parent="1">
          <mxGeometry x="590" y="46.75" width="100" height="20" as="geometry" />
        </mxCell>
        <mxCell id="kci2PPFaNapDngSlUc1S-24" value="VM" style="text;html=1;resizable=0;autosize=1;align=center;verticalAlign=middle;points=[];fillColor=none;strokeColor=none;rounded=0;" vertex="1" parent="1">
          <mxGeometry x="575" y="150" width="30" height="20" as="geometry" />
        </mxCell>
        <mxCell id="kci2PPFaNapDngSlUc1S-25" value="AZ DNS&amp;nbsp;" style="text;html=1;resizable=0;autosize=1;align=center;verticalAlign=middle;points=[];fillColor=none;strokeColor=none;rounded=0;" vertex="1" parent="1">
          <mxGeometry x="750" y="240" width="60" height="20" as="geometry" />
        </mxCell>
        <mxCell id="kci2PPFaNapDngSlUc1S-26" value="Jenkins&lt;br&gt;" style="text;html=1;resizable=0;autosize=1;align=center;verticalAlign=middle;points=[];fillColor=none;strokeColor=none;rounded=0;" vertex="1" parent="1">
          <mxGeometry x="560" y="380" width="60" height="20" as="geometry" />
        </mxCell>
        <mxCell id="kci2PPFaNapDngSlUc1S-27" value="Tomcat" style="text;html=1;resizable=0;autosize=1;align=center;verticalAlign=middle;points=[];fillColor=none;strokeColor=none;rounded=0;" vertex="1" parent="1">
          <mxGeometry x="565" y="487.5" width="50" height="20" as="geometry" />
        </mxCell>
      </root>
    </mxGraphModel>
  </diagram>
</mxfile>
